<svg xmlns="http://www.w3.org/2000/svg" xmlns:xlink="http://www.w3.org/1999/xlink" xmlns:lucid="lucid" width="2223.92" height="2728.95"><g transform="translate(-795.0837970844227 1941.499976439381)" lucid:page-tab-id="0_0"><path d="M1844.08-212.55a6 6 0 0 1 6-6h312a6 6 0 0 1 6 6v176a6 6 0 0 1-6 6h-312a6 6 0 0 1-6-6z" fill="#fff0fb"/><path d="M1844.08-212.55a6 6 0 0 1 6-6h312a6 6 0 0 1 6 6v176a6 6 0 0 1-6 6h-312a6 6 0 0 1-6-6zM1844.08-178.55h324M2006.08-178.55v148" stroke="#ff80df" stroke-width="2" fill="none"/><use xlink:href="#a" transform="matrix(1,0,0,1,1854.0837970844227,-218.5510979411365) translate(103.94444444444444 24.444444444444443)"/><use xlink:href="#b" transform="matrix(1,0,0,1,1849.0837970844227,-176.0510979411365) translate(0 20.444444444444443)"/><use xlink:href="#c" transform="matrix(1,0,0,1,2011.0837970844227,-176.0510979411365) translate(0 20.444444444444443)"/><use xlink:href="#d" transform="matrix(1,0,0,1,1849.0837970844227,-139.0510979411365) translate(0 20.444444444444443)"/><use xlink:href="#e" transform="matrix(1,0,0,1,2011.0837970844227,-139.0510979411365) translate(0 20.444444444444443)"/><use xlink:href="#f" transform="matrix(1,0,0,1,1849.0837970844227,-102.0510979411365) translate(0 20.444444444444443)"/><use xlink:href="#e" transform="matrix(1,0,0,1,2011.0837970844227,-102.0510979411365) translate(0 20.444444444444443)"/><use xlink:href="#g" transform="matrix(1,0,0,1,1849.0837970844227,-65.0510979411365) translate(0 20.444444444444443)"/><use xlink:href="#e" transform="matrix(1,0,0,1,2011.0837970844227,-65.0510979411365) translate(0 20.444444444444443)"/><path d="M1844.08 177.45a6 6 0 0 1 6-6h312a6 6 0 0 1 6 6v213a6 6 0 0 1-6 6h-312a6 6 0 0 1-6-6z" fill="#fff0fb"/><path d="M1844.08 177.45a6 6 0 0 1 6-6h312a6 6 0 0 1 6 6v213a6 6 0 0 1-6 6h-312a6 6 0 0 1-6-6zM1844.08 211.45h324M2006.08 211.45v185" stroke="#ff80df" stroke-width="2" fill="none"/><use xlink:href="#h" transform="matrix(1,0,0,1,1854.0837970844227,171.4489020588635) translate(123.66666666666667 24.444444444444443)"/><use xlink:href="#i" transform="matrix(1,0,0,1,1849.0837970844227,213.9489020588635) translate(0 20.444444444444443)"/><use xlink:href="#c" transform="matrix(1,0,0,1,2011.0837970844227,213.9489020588635) translate(0 20.444444444444443)"/><use xlink:href="#j" transform="matrix(1,0,0,1,1849.0837970844227,250.9489020588635) translate(0 20.444444444444443)"/><use xlink:href="#k" transform="matrix(1,0,0,1,2011.0837970844227,250.9489020588635) translate(0 20.444444444444443)"/><use xlink:href="#l" transform="matrix(1,0,0,1,1849.0837970844227,287.9489020588635) translate(0 20.444444444444443)"/><use xlink:href="#m" transform="matrix(1,0,0,1,2011.0837970844227,287.9489020588635) translate(0 20.444444444444443)"/><use xlink:href="#b" transform="matrix(1,0,0,1,1849.0837970844227,324.9489020588635) translate(0 20.444444444444443)"/><use xlink:href="#c" transform="matrix(1,0,0,1,2011.0837970844227,324.9489020588635) translate(0 20.444444444444443)"/><use xlink:href="#n" transform="matrix(1,0,0,1,1849.0837970844227,361.9489020588635) translate(0 20.444444444444443)"/><use xlink:href="#c" transform="matrix(1,0,0,1,2011.0837970844227,361.9489020588635) translate(0 20.444444444444443)"/><path d="M1790.08 604.45a6 6 0 0 1 6-6h312a6 6 0 0 1 6 6v176a6 6 0 0 1-6 6h-312a6 6 0 0 1-6-6z" fill="#fff0fb"/><path d="M1790.08 604.45a6 6 0 0 1 6-6h312a6 6 0 0 1 6 6v176a6 6 0 0 1-6 6h-312a6 6 0 0 1-6-6zM1790.08 638.45h324M1952.08 638.45v148" stroke="#ff80df" stroke-width="2" fill="none"/><use xlink:href="#o" transform="matrix(1,0,0,1,1800.0837970844227,598.4489020588635) translate(96.50617283950618 24.444444444444443)"/><use xlink:href="#p" transform="matrix(1,0,0,1,1795.0837970844227,640.9489020588635) translate(0 20.444444444444443)"/><use xlink:href="#c" transform="matrix(1,0,0,1,1957.0837970844227,640.9489020588635) translate(0 20.444444444444443)"/><use xlink:href="#d" transform="matrix(1,0,0,1,1795.0837970844227,677.9489020588635) translate(0 20.444444444444443)"/><use xlink:href="#e" transform="matrix(1,0,0,1,1957.0837970844227,677.9489020588635) translate(0 20.444444444444443)"/><use xlink:href="#q" transform="matrix(1,0,0,1,1795.0837970844227,714.9489020588635) translate(0 20.444444444444443)"/><use xlink:href="#m" transform="matrix(1,0,0,1,1957.0837970844227,714.9489020588635) translate(0 20.444444444444443)"/><use xlink:href="#r" transform="matrix(1,0,0,1,1795.0837970844227,751.9489020588635) translate(0 20.444444444444443)"/><use xlink:href="#e" transform="matrix(1,0,0,1,1957.0837970844227,751.9489020588635) translate(0 20.444444444444443)"/><path d="M2368.08-212.55a6 6 0 0 1 6-6h312a6 6 0 0 1 6 6v176a6 6 0 0 1-6 6h-312a6 6 0 0 1-6-6z" fill="#fff0fb"/><path d="M2368.08-212.55a6 6 0 0 1 6-6h312a6 6 0 0 1 6 6v176a6 6 0 0 1-6 6h-312a6 6 0 0 1-6-6zM2368.08-178.55h324M2530.08-178.55v148" stroke="#ff80df" stroke-width="2" fill="none"/><use xlink:href="#s" transform="matrix(1,0,0,1,2378.0837970844227,-218.5510979411365) translate(125.51851851851852 24.444444444444443)"/><use xlink:href="#t" transform="matrix(1,0,0,1,2373.0837970844227,-176.0510979411365) translate(0 20.444444444444443)"/><use xlink:href="#c" transform="matrix(1,0,0,1,2535.0837970844227,-176.0510979411365) translate(0 20.444444444444443)"/><use xlink:href="#u" transform="matrix(1,0,0,1,2373.0837970844227,-139.0510979411365) translate(0 20.444444444444443)"/><use xlink:href="#e" transform="matrix(1,0,0,1,2535.0837970844227,-139.0510979411365) translate(0 20.444444444444443)"/><use xlink:href="#v" transform="matrix(1,0,0,1,2373.0837970844227,-102.0510979411365) translate(0 20.444444444444443)"/><use xlink:href="#c" transform="matrix(1,0,0,1,2535.0837970844227,-102.0510979411365) translate(0 20.444444444444443)"/><use xlink:href="#w" transform="matrix(1,0,0,1,2373.0837970844227,-65.0510979411365) translate(0 20.444444444444443)"/><use xlink:href="#c" transform="matrix(1,0,0,1,2535.0837970844227,-65.0510979411365) translate(0 20.444444444444443)"/><path d="M2368.08 604.45a6 6 0 0 1 6-6h312a6 6 0 0 1 6 6v139a6 6 0 0 1-6 6h-312a6 6 0 0 1-6-6z" fill="#fff0fb"/><path d="M2368.08 604.45a6 6 0 0 1 6-6h312a6 6 0 0 1 6 6v139a6 6 0 0 1-6 6h-312a6 6 0 0 1-6-6zM2368.08 638.45h324M2530.08 638.45v111" stroke="#ff80df" stroke-width="2" fill="none"/><use xlink:href="#x" transform="matrix(1,0,0,1,2378.0837970844227,598.4489020588635) translate(108.2037037037037 24.444444444444443)"/><use xlink:href="#n" transform="matrix(1,0,0,1,2373.0837970844227,640.9489020588635) translate(0 20.444444444444443)"/><use xlink:href="#c" transform="matrix(1,0,0,1,2535.0837970844227,640.9489020588635) translate(0 20.444444444444443)"/><use xlink:href="#y" transform="matrix(1,0,0,1,2373.0837970844227,677.9489020588635) translate(0 20.444444444444443)"/><use xlink:href="#e" transform="matrix(1,0,0,1,2535.0837970844227,677.9489020588635) translate(0 20.444444444444443)"/><use xlink:href="#z" transform="matrix(1,0,0,1,2373.0837970844227,714.9489020588635) translate(0 20.444444444444443)"/><use xlink:href="#e" transform="matrix(1,0,0,1,2535.0837970844227,714.9489020588635) translate(0 20.444444444444443)"/><path d="M796.08-212.55a6 6 0 0 1 6-6h312a6 6 0 0 1 6 6v176a6 6 0 0 1-6 6h-312a6 6 0 0 1-6-6z" fill="#fff0fb"/><path d="M796.08-212.55a6 6 0 0 1 6-6h312a6 6 0 0 1 6 6v176a6 6 0 0 1-6 6h-312a6 6 0 0 1-6-6zM796.08-178.55h324M958.08-178.55v148" stroke="#ff80df" stroke-width="2" fill="none"/><use xlink:href="#A" transform="matrix(1,0,0,1,806.0837970844227,-218.5510979411365) translate(111.35185185185185 24.444444444444443)"/><use xlink:href="#B" transform="matrix(1,0,0,1,801.0837970844227,-176.0510979411365) translate(0 20.444444444444443)"/><use xlink:href="#c" transform="matrix(1,0,0,1,963.0837970844227,-176.0510979411365) translate(0 20.444444444444443)"/><use xlink:href="#d" transform="matrix(1,0,0,1,801.0837970844227,-139.0510979411365) translate(0 20.444444444444443)"/><use xlink:href="#e" transform="matrix(1,0,0,1,963.0837970844227,-139.0510979411365) translate(0 20.444444444444443)"/><use xlink:href="#u" transform="matrix(1,0,0,1,801.0837970844227,-102.0510979411365) translate(0 20.444444444444443)"/><use xlink:href="#e" transform="matrix(1,0,0,1,963.0837970844227,-102.0510979411365) translate(0 20.444444444444443)"/><use xlink:href="#C" transform="matrix(1,0,0,1,801.0837970844227,-65.0510979411365) translate(0 20.444444444444443)"/><use xlink:href="#e" transform="matrix(1,0,0,1,963.0837970844227,-65.0510979411365) translate(0 20.444444444444443)"/><path d="M1320.08-175.55a6 6 0 0 1 6-6h312a6 6 0 0 1 6 6v139a6 6 0 0 1-6 6h-312a6 6 0 0 1-6-6z" fill="#fff0fb"/><path d="M1320.08-175.55a6 6 0 0 1 6-6h312a6 6 0 0 1 6 6v139a6 6 0 0 1-6 6h-312a6 6 0 0 1-6-6zM1320.08-141.55h324M1482.08-141.55v111" stroke="#ff80df" stroke-width="2" fill="none"/><use xlink:href="#D" transform="matrix(1,0,0,1,1330.0837970844227,-181.5510979411365) translate(128.57407407407408 24.444444444444443)"/><use xlink:href="#E" transform="matrix(1,0,0,1,1325.0837970844227,-139.0510979411365) translate(0 20.444444444444443)"/><use xlink:href="#c" transform="matrix(1,0,0,1,1487.0837970844227,-139.0510979411365) translate(0 20.444444444444443)"/><use xlink:href="#d" transform="matrix(1,0,0,1,1325.0837970844227,-102.0510979411365) translate(0 20.444444444444443)"/><use xlink:href="#e" transform="matrix(1,0,0,1,1487.0837970844227,-102.0510979411365) translate(0 20.444444444444443)"/><use xlink:href="#F" transform="matrix(1,0,0,1,1325.0837970844227,-65.0510979411365) translate(0 20.444444444444443)"/><use xlink:href="#e" transform="matrix(1,0,0,1,1487.0837970844227,-65.0510979411365) translate(0 20.444444444444443)"/><path d="M2006.56 130.45h-.95V81.12h.96zm0-70.67h-.95V-9.55h.96z" stroke="#3a414a" stroke-width=".05" fill="#3a414a"/><path d="M2006.56-20.03h9.52v.95h-9.52v9.05h9.52v.95h-20v-.95h9.53v-9.05h-9.52v-.95h9.53v-9.52h.96z" stroke="#3a414a" stroke-width=".05" fill="#3a414a"/><path d="M2009.24 130.74l2.75 1.4 2.15 2.18 1.42 2.75.5 3.16-.5 3.16-1.42 2.73-2.16 2.17-2.76 1.42-3.16.5-3.16-.5-2.74-1.42-2.17-2.17-1.4-2.74-.52-3.18.5-3.16 1.43-2.74 2.18-2.16 2.74-1.42 3.16-.52zm-13.16 39.48l10-20m10 20l-10-20m0 20v-20" fill="#fff"/><path d="M2009.4 130.28l2.87 1.5 2.27 2.26 1.5 2.87.53 3.32-.54 3.32-1.5 2.88-2.26 2.26-2.88 1.5-2.6.4 9.7 19.43-.84.44-9.1-18.2v17.98h-.95v-17.98l-9.1 18.2-.84-.43 9.7-19.4-2.6-.43-2.87-1.5-2.28-2.25-1.48-2.88-.54-3.3.54-3.33 1.48-2.86 2.27-2.27 2.87-1.5 3.3-.53zm-6.33.9l-2.6 1.36-2.07 2.06-1.35 2.62-.48 3 .48 3.02 1.35 2.6 2.06 2.07 2.6 1.36 3.02.48 3-.48 2.63-1.35 2.07-2.05 1.35-2.6.48-3.03-.48-3-1.35-2.62-2.06-2.06-2.6-1.35-3.02-.5z" stroke="#3a414a" stroke-width=".05" fill="#3a414a"/><use xlink:href="#G" transform="matrix(1,0,0,1,1970.059105726398,59.78223539219681) translate(0 14.222222222222223)"/><path d="M1952.56 577.45h-.95v-69.33h.96zm-.48-90.67h-.95v-69.33h.95z" stroke="#3a414a" stroke-width=".05" fill="#3a414a"/><path d="M1952.08 406.97h9.52v.95h-9.52v9.05h9.52v.95h-20v-.95h9.53v-9.05h-9.53v-.95h9.53v-9.52h.95zM1962.08 577.7h-9.23l9.66 19.3-.84.44-9.1-18.2v18h-.95v-18l-9.1 18.2-.84-.43 9.65-19.3h-9.22v-.95h20z" stroke="#3a414a" stroke-width=".05" fill="#3a414a"/><use xlink:href="#H" transform="matrix(1,0,0,1,1907.4734345232844,486.7822441229635) translate(0 14.222222222222223)"/><path d="M2201.35 71.92h-107.53l-.88.07-.84.2-.8.33-.74.45-.66.56-.57.66-.45.74-.33.8-.2.84-.07.9v53.47h-.95V77.43l.08-1 .24-.98.4-.94.52-.86.66-.77.78-.66.86-.52.94-.4 1-.23.98-.08h107.57zm274.63-6.45l-.07 1-.23.98-.4.94-.52.86-.66.77-.78.66-.87.52-.94.4-.98.23-1 .07h-105.55v-.95h105.52l.87-.07.85-.2.8-.33.74-.45.65-.56.58-.66.45-.74.33-.8.2-.85.07-.87V-9.55h.95z" stroke="#3a414a" stroke-width=".05" fill="#3a414a"/><path d="M2475.98-20.03h9.53v.95H2476v9.05h9.53v.95h-20v-.95h9.53v-9.05h-9.52v-.95h9.53v-9.52h.95z" stroke="#3a414a" stroke-width=".05" fill="#3a414a"/><path d="M2090.97 130.96l2.74 1.42 2.17 2.16 1.42 2.75.5 3.15-.5 3.16-1.43 2.75-2.16 2.17-2.73 1.42-3.17.5-3.16-.5-2.74-1.42-2.17-2.17-1.42-2.74-.5-3.15.5-3.16 1.43-2.76 2.17-2.16 2.74-1.42 3.16-.5zm-3.17 39.5v-20m-10 10h20" fill="#fff"/><path d="M2091.1 130.5l2.9 1.5 2.26 2.26 1.5 2.88.52 3.3-.53 3.32-1.5 2.88-2.26 2.27-2.9 1.5-2.82.45v9.12h9.52v.95h-9.52v9.53h-.95v-9.53h-9.53v-.95h9.53v-9.12l-2.84-.45-2.9-1.5-2.26-2.26-1.48-2.88-.54-3.3.54-3.32 1.48-2.88 2.27-2.27 2.9-1.5 3.3-.53zm-6.3.92l-2.62 1.35-2.06 2.06-1.35 2.6-.5 3.02.5 3 1.35 2.62 2.06 2.06 2.6 1.35 3.02.5 3-.5 2.63-1.35 2.06-2.06 1.34-2.6.48-3.02-.48-3-1.35-2.62-2.07-2.06-2.62-1.35-3-.5z" stroke="#3a414a" stroke-width=".05" fill="#3a414a"/><use xlink:href="#I" transform="matrix(1,0,0,1,2201.347926183494,60.782235392196824) translate(0 14.222222222222223)"/><use xlink:href="#J" transform="matrix(1,0,0,1,2201.347926183494,60.782235392196824) translate(87.35802469135803 14.222222222222223)"/><path d="M1918.38 70.97l1 .08.98.24.94.38.87.53.77.67.66.77.53.87.4.95.23 1 .08.98v73.02h-.95V77.47l-.08-.9-.2-.83-.33-.8-.47-.74-.56-.66-.66-.56-.73-.45-.8-.33-.84-.2-.88-.08H1748.1v-.95zm-435.75-4.66l.2.86.33.8.45.74.58.66.66.56.74.45.8.33.84.2.88.07h168.25v.95h-168.28l-1-.07-1-.24-.93-.38-.86-.53-.78-.67-.66-.77-.53-.87-.38-.95-.23-1-.1-.98V-9.55h.96v74.98z" stroke="#3a414a" stroke-width=".05" fill="#3a414a"/><path d="M1482.56-20.03h9.52v.95h-9.52v9.05h9.52v.95h-20v-.95h9.53v-9.05h-9.52v-.95h9.53v-9.52h.96zM1934.36 150.7h-9.23l9.66 19.3-.86.44-9.1-18.2v17.98h-.95v-17.98l-9.1 18.2-.86-.43 9.65-19.3h-9.24v-.95h20z" stroke="#3a414a" stroke-width=".05" fill="#3a414a"/><use xlink:href="#K" transform="matrix(1,0,0,1,1656.3472943999157,60.782235392196824) translate(0 14.222222222222223)"/><path d="M2469.4 497.97l.98.08 1 .24.93.38.88.53.77.67.66.77.54.87.4.95.22 1 .08.98v53.52h-.95v-53.48l-.08-.9-.2-.83-.33-.8-.46-.74-.57-.66-.66-.56-.72-.45-.8-.33-.85-.2-.88-.08H2311.8v-.95zm-408.3-4.66l.2.86.34.8.45.74.56.66.66.56.74.45.8.33.84.2.88.07h155.55v.95h-155.6l-.98-.07-1-.24-.93-.38-.86-.53-.78-.67-.66-.77-.53-.87-.4-.95-.23-1-.08-.98v-75.02h.94v74.98z" stroke="#3a414a" stroke-width=".05" fill="#3a414a"/><path d="M2061.04 406.97h9.52v.95h-9.52v9.05h9.52v.95h-20v-.95h9.53v-9.05h-9.54v-.95h9.53v-9.52h.94z" stroke="#3a414a" stroke-width=".05" fill="#3a414a"/><path d="M2478.53 557.96l2.74 1.42 2.17 2.16 1.42 2.75.5 3.15-.5 3.16-1.42 2.75-2.17 2.17-2.74 1.42-3.16.5-3.16-.5-2.74-1.42-2.16-2.16-1.42-2.75-.5-3.15.5-3.16 1.42-2.76 2.16-2.16 2.75-1.42 3.17-.5zm-3.16 39.5v-20m-10 10h20" fill="#fff"/><path d="M2478.68 557.5l2.88 1.5 2.27 2.26 1.5 2.88.52 3.3-.53 3.32-1.5 2.88-2.26 2.27-2.88 1.5-2.84.45v9.12h9.53v.95h-9.53v9.53h-.95v-9.53h-9.53v-.95h9.52v-9.12l-2.84-.45-2.88-1.5-2.27-2.26-1.48-2.88-.53-3.3.52-3.32 1.5-2.88 2.26-2.27 2.88-1.5 3.3-.53zm-6.32.92l-2.6 1.35-2.07 2.06-1.36 2.6-.5 3.02.5 3 1.35 2.62 2.05 2.06 2.6 1.35 3.02.5 3-.5 2.62-1.35 2.05-2.06 1.35-2.6.5-3.02-.5-3-1.35-2.62-2.06-2.06-2.62-1.35-3-.5z" stroke="#3a414a" stroke-width=".05" fill="#3a414a"/><use xlink:href="#L" transform="matrix(1,0,0,1,2222.1266830167465,487.7822353921968) translate(0 14.222222222222223)"/><use xlink:href="#M" transform="matrix(1,0,0,1,2222.1266830167465,487.7822353921968) translate(64.59259259259261 14.222222222222223)"/><path d="M2585.27 557.95h-.95l-.03-263.33h.94zm-.14-284.67h-.95V-9.55h.95z" stroke="#3a414a" stroke-width=".05" fill="#3a414a"/><path d="M2585.13-20.03h9.53v.95h-9.53v9.05h9.53v.95h-20v-.95h9.52v-9.05h-9.52v-.95h9.52v-9.52h.95z" stroke="#3a414a" stroke-width=".05" fill="#3a414a"/><path d="M2587.96 557.96l2.74 1.42 2.17 2.16 1.42 2.75.5 3.15-.5 3.16-1.43 2.75-2.16 2.17-2.74 1.42-3.16.5-3.16-.5-2.75-1.42-2.17-2.16-1.42-2.75-.5-3.15.5-3.16 1.43-2.76 2.16-2.16 2.74-1.42 3.16-.5zm-3.16 39.5v-20m-10 10h20" fill="#fff"/><path d="M2588.1 557.5l2.9 1.5 2.26 2.26 1.5 2.88.52 3.3-.53 3.32-1.5 2.88-2.26 2.27-2.9 1.5-2.83.45v9.12h9.53v.95h-9.53v9.53h-.95v-9.53h-9.52v-.95h9.52v-9.12l-2.83-.45-2.9-1.5-2.26-2.26-1.5-2.88-.52-3.3.53-3.32 1.5-2.88 2.26-2.27 2.9-1.5 3.3-.53zm-6.3.92l-2.62 1.35-2.06 2.06-1.35 2.6-.5 3.02.5 3 1.35 2.62 2.06 2.06 2.6 1.35 3.02.5 3-.5 2.62-1.35 2.06-2.06 1.35-2.6.5-3.02-.5-3-1.35-2.62-2.06-2.06-2.6-1.35-3.02-.5z" stroke="#3a414a" stroke-width=".05" fill="#3a414a"/><use xlink:href="#L" transform="matrix(1,0,0,1,2539.889109852921,273.2822178778317) translate(0 14.222222222222223)"/><use xlink:href="#M" transform="matrix(1,0,0,1,2539.889109852921,273.2822178778317) translate(64.59259259259261 14.222222222222223)"/><path d="M2159-1894a6 6 0 0 1 6-6h312a6 6 0 0 1 6 6v176a6 6 0 0 1-6 6h-312a6 6 0 0 1-6-6z" fill="#fff0fb"/><path d="M2159-1894a6 6 0 0 1 6-6h312a6 6 0 0 1 6 6v176a6 6 0 0 1-6 6h-312a6 6 0 0 1-6-6zM2159-1860h324M2321-1860v148" stroke="#ff80df" stroke-width="2" fill="none"/><use xlink:href="#a" transform="matrix(1,0,0,1,2169,-1900) translate(103.94444444444444 24.444444444444443)"/><use xlink:href="#b" transform="matrix(1,0,0,1,2164,-1857.5) translate(0 20.444444444444443)"/><use xlink:href="#e" transform="matrix(1,0,0,1,2326,-1857.5) translate(0 20.444444444444443)"/><use xlink:href="#d" transform="matrix(1,0,0,1,2164,-1820.5) translate(0 20.444444444444443)"/><use xlink:href="#e" transform="matrix(1,0,0,1,2326,-1820.5) translate(0 20.444444444444443)"/><use xlink:href="#f" transform="matrix(1,0,0,1,2164,-1783.5) translate(0 20.444444444444443)"/><use xlink:href="#e" transform="matrix(1,0,0,1,2326,-1783.5) translate(0 20.444444444444443)"/><use xlink:href="#g" transform="matrix(1,0,0,1,2164,-1746.5) translate(0 20.444444444444443)"/><use xlink:href="#e" transform="matrix(1,0,0,1,2326,-1746.5) translate(0 20.444444444444443)"/><path d="M2103.67-1504a6 6 0 0 1 6-6h314a6 6 0 0 1 6 6v213a6 6 0 0 1-6 6h-314a6 6 0 0 1-6-6z" fill="#fff0fb"/><path d="M2103.67-1504a6 6 0 0 1 6-6h314a6 6 0 0 1 6 6v213a6 6 0 0 1-6 6h-314a6 6 0 0 1-6-6zM2103.67-1470h326M2266.67-1470v185" stroke="#ff80df" stroke-width="2" fill="none"/><use xlink:href="#h" transform="matrix(1,0,0,1,2113.666666666667,-1510) translate(124.66666666666667 24.444444444444443)"/><use xlink:href="#i" transform="matrix(1,0,0,1,2108.666666666667,-1467.5) translate(0 20.444444444444443)"/><use xlink:href="#e" transform="matrix(1,0,0,1,2271.666666666667,-1467.5) translate(0 20.444444444444443)"/><use xlink:href="#j" transform="matrix(1,0,0,1,2108.666666666667,-1430.5) translate(0 20.444444444444443)"/><use xlink:href="#k" transform="matrix(1,0,0,1,2271.666666666667,-1430.5) translate(0 20.444444444444443)"/><use xlink:href="#l" transform="matrix(1,0,0,1,2108.666666666667,-1393.5) translate(0 20.444444444444443)"/><use xlink:href="#N" transform="matrix(1,0,0,1,2271.666666666667,-1393.5) translate(0 20.444444444444443)"/><use xlink:href="#b" transform="matrix(1,0,0,1,2108.666666666667,-1356.5) translate(0 20.444444444444443)"/><use xlink:href="#e" transform="matrix(1,0,0,1,2271.666666666667,-1356.5) translate(0 20.444444444444443)"/><use xlink:href="#n" transform="matrix(1,0,0,1,2108.666666666667,-1319.5) translate(0 20.444444444444443)"/><use xlink:href="#e" transform="matrix(1,0,0,1,2271.666666666667,-1319.5) translate(0 20.444444444444443)"/><path d="M2049.33-1077a6 6 0 0 1 6-6h314a6 6 0 0 1 6 6v176a6 6 0 0 1-6 6h-314a6 6 0 0 1-6-6z" fill="#fff0fb"/><path d="M2049.33-1077a6 6 0 0 1 6-6h314a6 6 0 0 1 6 6v176a6 6 0 0 1-6 6h-314a6 6 0 0 1-6-6zM2049.33-1043h326M2212.33-1043v148" stroke="#ff80df" stroke-width="2" fill="none"/><use xlink:href="#o" transform="matrix(1,0,0,1,2059.3333333333335,-1083) translate(97.50617283950618 24.444444444444443)"/><use xlink:href="#p" transform="matrix(1,0,0,1,2054.3333333333335,-1040.5) translate(0 20.444444444444443)"/><use xlink:href="#e" transform="matrix(1,0,0,1,2217.3333333333335,-1040.5) translate(0 20.444444444444443)"/><use xlink:href="#d" transform="matrix(1,0,0,1,2054.3333333333335,-1003.5) translate(0 20.444444444444443)"/><use xlink:href="#e" transform="matrix(1,0,0,1,2217.3333333333335,-1003.5) translate(0 20.444444444444443)"/><use xlink:href="#q" transform="matrix(1,0,0,1,2054.3333333333335,-966.5) translate(0 20.444444444444443)"/><use xlink:href="#N" transform="matrix(1,0,0,1,2217.3333333333335,-966.5) translate(0 20.444444444444443)"/><use xlink:href="#r" transform="matrix(1,0,0,1,2054.3333333333335,-929.5) translate(0 20.444444444444443)"/><use xlink:href="#e" transform="matrix(1,0,0,1,2217.3333333333335,-929.5) translate(0 20.444444444444443)"/><path d="M2683-1894a6 6 0 0 1 6-6h314a6 6 0 0 1 6 6v176a6 6 0 0 1-6 6h-314a6 6 0 0 1-6-6z" fill="#fff0fb"/><path d="M2683-1894a6 6 0 0 1 6-6h314a6 6 0 0 1 6 6v176a6 6 0 0 1-6 6h-314a6 6 0 0 1-6-6zM2683-1860h326M2846-1860v148" stroke="#ff80df" stroke-width="2" fill="none"/><use xlink:href="#s" transform="matrix(1,0,0,1,2693,-1900) translate(126.51851851851852 24.444444444444443)"/><use xlink:href="#t" transform="matrix(1,0,0,1,2688,-1857.5) translate(0 20.444444444444443)"/><use xlink:href="#e" transform="matrix(1,0,0,1,2851,-1857.5) translate(0 20.444444444444443)"/><use xlink:href="#u" transform="matrix(1,0,0,1,2688,-1820.5) translate(0 20.444444444444443)"/><use xlink:href="#e" transform="matrix(1,0,0,1,2851,-1820.5) translate(0 20.444444444444443)"/><use xlink:href="#v" transform="matrix(1,0,0,1,2688,-1783.5) translate(0 20.444444444444443)"/><use xlink:href="#N" transform="matrix(1,0,0,1,2851,-1783.5) translate(0 20.444444444444443)"/><use xlink:href="#w" transform="matrix(1,0,0,1,2688,-1746.5) translate(0 20.444444444444443)"/><use xlink:href="#e" transform="matrix(1,0,0,1,2851,-1746.5) translate(0 20.444444444444443)"/><path d="M2630-1077a6 6 0 0 1 6-6h312a6 6 0 0 1 6 6v139a6 6 0 0 1-6 6h-312a6 6 0 0 1-6-6z" fill="#fff0fb"/><path d="M2630-1077a6 6 0 0 1 6-6h312a6 6 0 0 1 6 6v139a6 6 0 0 1-6 6h-312a6 6 0 0 1-6-6zM2630-1043h324M2792-1043v111" stroke="#ff80df" stroke-width="2" fill="none"/><use xlink:href="#x" transform="matrix(1,0,0,1,2640,-1083) translate(108.2037037037037 24.444444444444443)"/><use xlink:href="#n" transform="matrix(1,0,0,1,2635,-1040.5) translate(0 20.444444444444443)"/><use xlink:href="#e" transform="matrix(1,0,0,1,2797,-1040.5) translate(0 20.444444444444443)"/><use xlink:href="#y" transform="matrix(1,0,0,1,2635,-1003.5) translate(0 20.444444444444443)"/><use xlink:href="#e" transform="matrix(1,0,0,1,2797,-1003.5) translate(0 20.444444444444443)"/><use xlink:href="#z" transform="matrix(1,0,0,1,2635,-966.5) translate(0 20.444444444444443)"/><use xlink:href="#e" transform="matrix(1,0,0,1,2797,-966.5) translate(0 20.444444444444443)"/><path d="M1111-1894a6 6 0 0 1 6-6h312a6 6 0 0 1 6 6v176a6 6 0 0 1-6 6h-312a6 6 0 0 1-6-6z" fill="#fff0fb"/><path d="M1111-1894a6 6 0 0 1 6-6h312a6 6 0 0 1 6 6v176a6 6 0 0 1-6 6h-312a6 6 0 0 1-6-6zM1111-1860h324M1273-1860v148" stroke="#ff80df" stroke-width="2" fill="none"/><use xlink:href="#A" transform="matrix(1,0,0,1,1121,-1900) translate(111.35185185185185 24.444444444444443)"/><use xlink:href="#B" transform="matrix(1,0,0,1,1116,-1857.5) translate(0 20.444444444444443)"/><use xlink:href="#e" transform="matrix(1,0,0,1,1278,-1857.5) translate(0 20.444444444444443)"/><use xlink:href="#d" transform="matrix(1,0,0,1,1116,-1820.5) translate(0 20.444444444444443)"/><use xlink:href="#e" transform="matrix(1,0,0,1,1278,-1820.5) translate(0 20.444444444444443)"/><use xlink:href="#u" transform="matrix(1,0,0,1,1116,-1783.5) translate(0 20.444444444444443)"/><use xlink:href="#e" transform="matrix(1,0,0,1,1278,-1783.5) translate(0 20.444444444444443)"/><use xlink:href="#C" transform="matrix(1,0,0,1,1116,-1746.5) translate(0 20.444444444444443)"/><use xlink:href="#e" transform="matrix(1,0,0,1,1278,-1746.5) translate(0 20.444444444444443)"/><path d="M1635-1857a6 6 0 0 1 6-6h312a6 6 0 0 1 6 6v139a6 6 0 0 1-6 6h-312a6 6 0 0 1-6-6z" fill="#fff0fb"/><path d="M1635-1857a6 6 0 0 1 6-6h312a6 6 0 0 1 6 6v139a6 6 0 0 1-6 6h-312a6 6 0 0 1-6-6zM1635-1823h324M1797-1823v111" stroke="#ff80df" stroke-width="2" fill="none"/><use xlink:href="#D" transform="matrix(1,0,0,1,1645,-1863) translate(128.57407407407408 24.444444444444443)"/><use xlink:href="#E" transform="matrix(1,0,0,1,1640,-1820.5) translate(0 20.444444444444443)"/><use xlink:href="#e" transform="matrix(1,0,0,1,1802,-1820.5) translate(0 20.444444444444443)"/><use xlink:href="#d" transform="matrix(1,0,0,1,1640,-1783.5) translate(0 20.444444444444443)"/><use xlink:href="#e" transform="matrix(1,0,0,1,1802,-1783.5) translate(0 20.444444444444443)"/><use xlink:href="#F" transform="matrix(1,0,0,1,1640,-1746.5) translate(0 20.444444444444443)"/><use xlink:href="#e" transform="matrix(1,0,0,1,1802,-1746.5) translate(0 20.444444444444443)"/><path d="M2674-1504a6 6 0 0 1 6-6h332a6 6 0 0 1 6 6v213a6 6 0 0 1-6 6h-332a6 6 0 0 1-6-6z" fill="#fff0fb"/><path d="M2674-1504a6 6 0 0 1 6-6h332a6 6 0 0 1 6 6v213a6 6 0 0 1-6 6h-332a6 6 0 0 1-6-6zM2674-1470h344M2846-1470v185" stroke="#ff80df" stroke-width="2" fill="none"/><use xlink:href="#O" transform="matrix(1,0,0,1,2684,-1510) translate(121.9074074074074 24.444444444444443)"/><use xlink:href="#w" transform="matrix(1,0,0,1,2679,-1467.5) translate(0 20.444444444444443)"/><use xlink:href="#e" transform="matrix(1,0,0,1,2851,-1467.5) translate(0 20.444444444444443)"/><use xlink:href="#P" transform="matrix(1,0,0,1,2679,-1430.5) translate(0 20.444444444444443)"/><use xlink:href="#Q" transform="matrix(1,0,0,1,2851,-1430.5) translate(0 20.444444444444443)"/><use xlink:href="#b" transform="matrix(1,0,0,1,2679,-1393.5) translate(0 20.444444444444443)"/><use xlink:href="#e" transform="matrix(1,0,0,1,2851,-1393.5) translate(0 20.444444444444443)"/><use xlink:href="#t" transform="matrix(1,0,0,1,2679,-1356.5) translate(0 20.444444444444443)"/><use xlink:href="#e" transform="matrix(1,0,0,1,2851,-1356.5) translate(0 20.444444444444443)"/><use xlink:href="#n" transform="matrix(1,0,0,1,2679,-1319.5) translate(0 20.444444444444443)"/><use xlink:href="#e" transform="matrix(1,0,0,1,2851,-1319.5) translate(0 20.444444444444443)"/><path d="M2321.96-1551h-.95v-49.33h.96zm-.5-70.67h-.93V-1691h.94z" stroke="#3a414a" stroke-width=".05" fill="#3a414a"/><path d="M2321.47-1701.47h9.53v.94h-9.53v9.06h9.53v.94h-20v-.94h9.53v-9.06H2311v-.94h9.53v-9.53h.94z" stroke="#3a414a" stroke-width=".05" fill="#3a414a"/><path d="M2324.64-1550.7l2.75 1.4 2.15 2.17 1.42 2.75.5 3.16-.5 3.16-1.42 2.74-2.16 2.17-2.76 1.42-3.16.5-3.16-.5-2.74-1.42-2.17-2.17-1.4-2.74-.52-3.16.5-3.16 1.43-2.75 2.18-2.16 2.74-1.4 3.16-.52zm-13.16 39.48l10-20m10 20l-10-20m0 20v-20" fill="#fff"/><path d="M2324.8-1551.17l2.87 1.5 2.27 2.26 1.5 2.87.52 3.3-.53 3.32-1.5 2.87-2.26 2.26-2.88 1.5-2.6.4 9.7 19.43-.84.43-9.1-18.2v17.98h-.95v-18l-9.1 18.2-.84-.42 9.7-19.42-2.6-.42-2.87-1.5-2.28-2.25-1.48-2.88-.54-3.32.54-3.32 1.48-2.87 2.27-2.28 2.87-1.5 3.3-.52zm-6.33.9l-2.6 1.36-2.07 2.05-1.35 2.62-.5 3 .5 3.02 1.35 2.6 2.06 2.06 2.6 1.35 3.02.5 3-.5 2.63-1.34 2.07-2.06 1.35-2.6.48-3.02-.48-3-1.36-2.63-2.05-2.06-2.6-1.36-3.02-.48z" stroke="#3a414a" stroke-width=".05" fill="#3a414a"/><use xlink:href="#G" transform="matrix(1,0,0,1,2285.2167822650254,-1621.6666753953739) translate(0 14.222222222222223)"/><path d="M2212.8-1104h-.94v-69.33h.95zm-.48-90.67h-.95V-1264h.95z" stroke="#3a414a" stroke-width=".05" fill="#3a414a"/><path d="M2212.32-1274.47h9.53v.94h-9.53v9.06h9.53v.94h-20v-.94h9.53v-9.06h-9.53v-.94h9.53v-9.53h.94zM2222.33-1103.75h-9.23l9.66 19.3-.85.44-9.1-18.2v17.98h-.94v-18l-9.1 18.2-.85-.42 9.66-19.3h-9.23v-.96h20z" stroke="#3a414a" stroke-width=".05" fill="#3a414a"/><use xlink:href="#H" transform="matrix(1,0,0,1,2167.721489339913,-1194.6666579379596) translate(0 14.222222222222223)"/><path d="M2846.47-1550.5h-.94v-49.83h.94zm0-71.17h-.94V-1691h.94z" stroke="#3a414a" stroke-width=".05" fill="#3a414a"/><path d="M2846.47-1701.47h9.53v.94h-9.53v9.06h9.53v.94h-20v-.94h9.53v-9.06H2836v-.94h9.53v-9.53h.94z" stroke="#3a414a" stroke-width=".05" fill="#3a414a"/><path d="M2849.16-1550.5l2.75 1.43 2.17 2.16 1.42 2.74.5 3.16-.5 3.16-1.43 2.75-2.16 2.17-2.74 1.42-3.16.5-3.16-.5-2.75-1.43-2.17-2.16-1.42-2.74-.5-3.16.5-3.16 1.43-2.75 2.16-2.17 2.74-1.42 3.16-.5zM2846-1511v-20m-10 10h20" fill="#fff"/><path d="M2849.3-1550.95l2.9 1.5 2.26 2.26 1.5 2.9.52 3.3-.53 3.3-1.5 2.9-2.26 2.26-2.9 1.5-2.83.44v9.13h9.53v.94h-9.53v9.53h-.94v-9.53H2836v-.94h9.53v-9.13l-2.84-.45-2.9-1.5-2.26-2.26-1.5-2.9-.52-3.3.53-3.3 1.5-2.9 2.26-2.26 2.9-1.5 3.3-.52zm-6.3.92l-2.62 1.35-2.06 2.06-1.35 2.6-.5 3.02.5 3 1.35 2.62 2.06 2.06 2.6 1.35 3.02.5 3-.5 2.62-1.35 2.06-2.06 1.35-2.6.5-3.02-.5-3-1.35-2.62-2.06-2.06-2.6-1.35-3.02-.5z" stroke="#3a414a" stroke-width=".05" fill="#3a414a"/><use xlink:href="#I" transform="matrix(1,0,0,1,2764.6913580246915,-1621.6666666666667) translate(0 14.222222222222223)"/><use xlink:href="#J" transform="matrix(1,0,0,1,2764.6913580246915,-1621.6666666666667) translate(87.35802469135803 14.222222222222223)"/><path d="M2205.87-1610.47l1 .07.98.24.94.4.86.52.77.66.66.77.52.86.4.94.23 1 .07.98v73.02h-.95v-72.98l-.06-.88-.2-.85-.33-.8-.45-.75-.56-.66-.66-.57-.74-.45-.8-.33-.85-.2-.87-.08H2049.3v-.94zm-408.33-4.67l.2.85.34.8.45.75.56.66.65.57.74.45.8.33.84.2.88.08h154.53v.94h-154.57l-1-.07-.98-.24-.94-.4-.87-.52-.78-.66-.66-.77-.53-.86-.4-.94-.23-1-.07-.98V-1691h.94v74.98z" stroke="#3a414a" stroke-width=".05" fill="#3a414a"/><path d="M1797.47-1701.47h9.53v.94h-9.53v9.06h9.53v.94h-20v-.94h9.53v-9.06H1787v-.94h9.53v-9.53h.94zM2221.85-1530.75h-9.23l9.66 19.3-.85.44-9.1-18.2v17.98h-.95v-18l-9.1 18.2-.85-.42 9.65-19.3h-9.23v-.96h20z" stroke="#3a414a" stroke-width=".05" fill="#3a414a"/><use xlink:href="#K" transform="matrix(1,0,0,1,1957.5486669937281,-1620.6666666666667) translate(0 14.222222222222223)"/><path d="M2731.3-1183.47l1 .07 1 .24.92.4.87.52.76.66.66.77.53.86.4.94.23 1 .08.98v53.52h-.95v-53.48l-.06-.88-.2-.85-.33-.8-.45-.75-.56-.66-.67-.57-.74-.45-.8-.33-.85-.2-.88-.08h-158.05v-.94zm-409.27-4.67l.2.85.33.8.45.75.58.66.66.57.74.45.8.33.84.2.88.08h156.04v.94h-156.08l-1-.07-.98-.24-.94-.4-.86-.52-.78-.66-.66-.77-.53-.86-.38-.94-.23-1-.1-.98V-1264h.96v74.98z" stroke="#3a414a" stroke-width=".05" fill="#3a414a"/><path d="M2321.96-1274.47h9.52v.94h-9.52v9.06h9.52v.94h-20v-.94h9.53v-9.06h-9.52v-.94h9.53v-9.53h.96z" stroke="#3a414a" stroke-width=".05" fill="#3a414a"/><path d="M2740.45-1123.5l2.74 1.43 2.16 2.16 1.4 2.74.52 3.16-.5 3.16-1.43 2.75-2.16 2.17-2.75 1.42-3.16.5-3.18-.5-2.74-1.43-2.17-2.16-1.4-2.74-.52-3.16.5-3.16 1.43-2.75 2.18-2.17 2.74-1.42 3.16-.5zm-3.16 39.5l-.02-20m-10 10h20" fill="#fff"/><path d="M2740.6-1123.95l2.87 1.5 2.27 2.26 1.5 2.9.53 3.3-.54 3.3-1.5 2.9-2.26 2.26-2.87 1.5-2.84.44v9.13h9.52v.94h-9.52v9.53h-.95v-9.53h-9.52v-.94h9.53v-9.13l-2.83-.45-2.88-1.5-2.27-2.26-1.5-2.9-.53-3.3.54-3.3 1.5-2.9 2.25-2.26 2.87-1.5 3.32-.52zm-6.32.92l-2.62 1.35-2.06 2.06-1.35 2.6-.48 3.02.48 3 1.35 2.62 2.06 2.06 2.62 1.35 3 .5 3-.5 2.63-1.35 2.07-2.06 1.35-2.6.48-3.02-.48-3-1.35-2.62-2.06-2.06-2.6-1.35-3.02-.5z" stroke="#3a414a" stroke-width=".05" fill="#3a414a"/><use xlink:href="#L" transform="matrix(1,0,0,1,2483.544367316917,-1193.6666666666667) translate(0 14.222222222222223)"/><use xlink:href="#M" transform="matrix(1,0,0,1,2483.544367316917,-1193.6666666666667) translate(64.59259259259261 14.222222222222223)"/><path d="M2847.2-1123.5h-.96v-49.83h.95zm-.72-71.17h-.95V-1264h.94z" stroke="#3a414a" stroke-width=".05" fill="#3a414a"/><path d="M2846.47-1274.47h9.53v.94h-9.53v9.06h9.53v.94h-20v-.94h9.53v-9.06H2836v-.94h9.53v-9.53h.94z" stroke="#3a414a" stroke-width=".05" fill="#3a414a"/><path d="M2849.88-1123.5l2.74 1.43 2.17 2.16 1.4 2.74.52 3.16-.5 3.16-1.43 2.75-2.18 2.17-2.74 1.42-3.16.5-3.17-.5-2.74-1.43-2.16-2.16-1.4-2.74-.52-3.16.5-3.16 1.43-2.75 2.16-2.17 2.75-1.42 3.16-.5zm-3.16 39.5v-20m-10 10h20" fill="#fff"/><path d="M2850.03-1123.95l2.88 1.5 2.27 2.26 1.5 2.9.53 3.3-.54 3.3-1.5 2.9-2.25 2.26-2.87 1.5-2.84.44v9.13h9.52v.94h-9.53v9.53h-.96v-9.53h-9.52v-.94h9.52v-9.13l-2.84-.45-2.87-1.5-2.27-2.26-1.5-2.9-.53-3.3.54-3.3 1.5-2.9 2.26-2.26 2.87-1.5 3.32-.52zm-6.33.92l-2.6 1.35-2.07 2.06-1.35 2.6-.48 3.02.48 3 1.35 2.62 2.06 2.06 2.6 1.35 3.02.5 3-.5 2.62-1.35 2.06-2.06 1.35-2.6.48-3.02-.48-3-1.35-2.62-2.06-2.06-2.62-1.35-3-.5z" stroke="#3a414a" stroke-width=".05" fill="#3a414a"/><g><use xlink:href="#L" transform="matrix(1,0,0,1,2801.518098111889,-1194.6666754351297) translate(0 14.222222222222223)"/><use xlink:href="#M" transform="matrix(1,0,0,1,2801.518098111889,-1194.6666754351297) translate(64.59259259259261 14.222222222222223)"/></g><path d="M2321-1921v-14a6 6 0 0 0-6-6h-953.5a6 6 0 0 0-6 6v14.6M2321-1901v-20m10 0h-20M1355.5-1901.22v-20m10 20l-10-20m-10 20l10-20" stroke="#3a414a" fill="none"/><defs><path d="M212-179c-10-28-35-45-73-45-59 0-87 40-87 99 0 60 29 101 89 101 43 0 62-24 78-52l27 14C228-24 195 4 139 4 59 4 22-46 18-125c-6-104 99-153 187-111 19 9 31 26 39 46" id="R"/><path d="M84 4C-5 8 30-112 23-190h32v120c0 31 7 50 39 49 72-2 45-101 50-169h31l1 190h-30c-1-10 1-25-2-33-11 22-28 36-60 37" id="S"/><path d="M135-143c-3-34-86-38-87 0 15 53 115 12 119 90S17 21 10-45l28-5c4 36 97 45 98 0-10-56-113-15-118-90-4-57 82-63 122-42 12 7 21 19 24 35" id="T"/><path d="M59-47c-2 24 18 29 38 22v24C64 9 27 4 27-40v-127H5v-23h24l9-43h21v43h35v23H59v120" id="U"/><path d="M100-194c62-1 85 37 85 99 1 63-27 99-86 99S16-35 15-95c0-66 28-99 85-99zM99-20c44 1 53-31 53-75 0-43-8-75-51-75s-53 32-53 75 10 74 51 75" id="V"/><path d="M210-169c-67 3-38 105-44 169h-31v-121c0-29-5-50-35-48C34-165 62-65 56 0H25l-1-190h30c1 10-1 24 2 32 10-44 99-50 107 0 11-21 27-35 58-36 85-2 47 119 55 194h-31v-121c0-29-5-49-35-48" id="W"/><path d="M100-194c63 0 86 42 84 106H49c0 40 14 67 53 68 26 1 43-12 49-29l28 8c-11 28-37 45-77 45C44 4 14-33 15-96c1-61 26-98 85-98zm52 81c6-60-76-77-97-28-3 7-6 17-6 28h103" id="X"/><path d="M114-163C36-179 61-72 57 0H25l-1-190h30c1 12-1 29 2 39 6-27 23-49 58-41v29" id="Y"/><g id="a"><use transform="matrix(0.06172839506172839,0,0,0.06172839506172839,0,0)" xlink:href="#R"/><use transform="matrix(0.06172839506172839,0,0,0.06172839506172839,15.987654320987653,0)" xlink:href="#S"/><use transform="matrix(0.06172839506172839,0,0,0.06172839506172839,28.333333333333332,0)" xlink:href="#T"/><use transform="matrix(0.06172839506172839,0,0,0.06172839506172839,39.44444444444444,0)" xlink:href="#U"/><use transform="matrix(0.06172839506172839,0,0,0.06172839506172839,45.617283950617285,0)" xlink:href="#V"/><use transform="matrix(0.06172839506172839,0,0,0.06172839506172839,57.96296296296296,0)" xlink:href="#W"/><use transform="matrix(0.06172839506172839,0,0,0.06172839506172839,76.41975308641975,0)" xlink:href="#X"/><use transform="matrix(0.06172839506172839,0,0,0.06172839506172839,88.76543209876543,0)" xlink:href="#Y"/></g><path d="M-5 72V49h209v23H-5" id="Z"/><path d="M33 0v-248h34V0H33" id="aa"/><path d="M30-248c118-7 216 8 213 122C240-48 200 0 122 0H30v-248zM63-27c89 8 146-16 146-99s-60-101-146-95v194" id="ab"/><g id="b"><use transform="matrix(0.06172839506172839,0,0,0.06172839506172839,0,0)" xlink:href="#R"/><use transform="matrix(0.06172839506172839,0,0,0.06172839506172839,15.987654320987653,0)" xlink:href="#S"/><use transform="matrix(0.06172839506172839,0,0,0.06172839506172839,28.333333333333332,0)" xlink:href="#T"/><use transform="matrix(0.06172839506172839,0,0,0.06172839506172839,39.44444444444444,0)" xlink:href="#U"/><use transform="matrix(0.06172839506172839,0,0,0.06172839506172839,45.617283950617285,0)" xlink:href="#V"/><use transform="matrix(0.06172839506172839,0,0,0.06172839506172839,57.96296296296296,0)" xlink:href="#W"/><use transform="matrix(0.06172839506172839,0,0,0.06172839506172839,76.41975308641975,0)" xlink:href="#X"/><use transform="matrix(0.06172839506172839,0,0,0.06172839506172839,88.76543209876543,0)" xlink:href="#Y"/><use transform="matrix(0.06172839506172839,0,0,0.06172839506172839,96.11111111111111,0)" xlink:href="#Z"/><use transform="matrix(0.06172839506172839,0,0,0.06172839506172839,108.4567901234568,0)" xlink:href="#aa"/><use transform="matrix(0.06172839506172839,0,0,0.06172839506172839,114.62962962962963,0)" xlink:href="#ab"/></g><path d="M24-231v-30h32v30H24zM24 0v-190h32V0H24" id="ac"/><path d="M117-194c89-4 53 116 60 194h-32v-121c0-31-8-49-39-48C34-167 62-67 57 0H25l-1-190h30c1 10-1 24 2 32 11-22 29-35 61-36" id="ad"/><g id="c"><use transform="matrix(0.06172839506172839,0,0,0.06172839506172839,0,0)" xlink:href="#ac"/><use transform="matrix(0.06172839506172839,0,0,0.06172839506172839,4.876543209876543,0)" xlink:href="#ad"/><use transform="matrix(0.06172839506172839,0,0,0.06172839506172839,17.22222222222222,0)" xlink:href="#U"/></g><path d="M190 0L58-211 59 0H30v-248h39L202-35l-2-213h31V0h-41" id="ae"/><path d="M141-36C126-15 110 5 73 4 37 3 15-17 15-53c-1-64 63-63 125-63 3-35-9-54-41-54-24 1-41 7-42 31l-33-3c5-37 33-52 76-52 45 0 72 20 72 64v82c-1 20 7 32 28 27v20c-31 9-61-2-59-35zM48-53c0 20 12 33 32 33 41-3 63-29 60-74-43 2-92-5-92 41" id="af"/><g id="d"><use transform="matrix(0.06172839506172839,0,0,0.06172839506172839,0,0)" xlink:href="#ae"/><use transform="matrix(0.06172839506172839,0,0,0.06172839506172839,15.987654320987653,0)" xlink:href="#af"/><use transform="matrix(0.06172839506172839,0,0,0.06172839506172839,28.333333333333332,0)" xlink:href="#W"/><use transform="matrix(0.06172839506172839,0,0,0.06172839506172839,46.79012345679012,0)" xlink:href="#X"/></g><path d="M177-190C167-65 218 103 67 71c-23-6-38-20-44-43l32-5c15 47 100 32 89-28v-30C133-14 115 1 83 1 29 1 15-40 15-95c0-56 16-97 71-98 29-1 48 16 59 35 1-10 0-23 2-32h30zM94-22c36 0 50-32 50-73 0-42-14-75-50-75-39 0-46 34-46 75s6 73 46 73" id="ag"/><g id="e"><use transform="matrix(0.06172839506172839,0,0,0.06172839506172839,0,0)" xlink:href="#T"/><use transform="matrix(0.06172839506172839,0,0,0.06172839506172839,11.11111111111111,0)" xlink:href="#U"/><use transform="matrix(0.06172839506172839,0,0,0.06172839506172839,17.28395061728395,0)" xlink:href="#Y"/><use transform="matrix(0.06172839506172839,0,0,0.06172839506172839,24.629629629629626,0)" xlink:href="#ac"/><use transform="matrix(0.06172839506172839,0,0,0.06172839506172839,29.50617283950617,0)" xlink:href="#ad"/><use transform="matrix(0.06172839506172839,0,0,0.06172839506172839,41.85185185185185,0)" xlink:href="#ag"/></g><path d="M30 0v-248h187v28H63v79h144v27H63v87h162V0H30" id="ah"/><path d="M24 0v-261h32V0H24" id="ai"/><g id="f"><use transform="matrix(0.06172839506172839,0,0,0.06172839506172839,0,0)" xlink:href="#ah"/><use transform="matrix(0.06172839506172839,0,0,0.06172839506172839,14.814814814814813,0)" xlink:href="#W"/><use transform="matrix(0.06172839506172839,0,0,0.06172839506172839,33.2716049382716,0)" xlink:href="#af"/><use transform="matrix(0.06172839506172839,0,0,0.06172839506172839,45.61728395061728,0)" xlink:href="#ac"/><use transform="matrix(0.06172839506172839,0,0,0.06172839506172839,50.49382716049382,0)" xlink:href="#ai"/></g><path d="M96-169c-40 0-48 33-48 73s9 75 48 75c24 0 41-14 43-38l32 2c-6 37-31 61-74 61-59 0-76-41-82-99-10-93 101-131 147-64 4 7 5 14 7 22l-32 3c-4-21-16-35-41-35" id="aj"/><g id="g"><use transform="matrix(0.06172839506172839,0,0,0.06172839506172839,0,0)" xlink:href="#R"/><use transform="matrix(0.06172839506172839,0,0,0.06172839506172839,15.987654320987653,0)" xlink:href="#V"/><use transform="matrix(0.06172839506172839,0,0,0.06172839506172839,28.333333333333332,0)" xlink:href="#ad"/><use transform="matrix(0.06172839506172839,0,0,0.06172839506172839,40.67901234567901,0)" xlink:href="#U"/><use transform="matrix(0.06172839506172839,0,0,0.06172839506172839,46.851851851851855,0)" xlink:href="#af"/><use transform="matrix(0.06172839506172839,0,0,0.06172839506172839,59.19753086419753,0)" xlink:href="#aj"/><use transform="matrix(0.06172839506172839,0,0,0.06172839506172839,70.30864197530865,0)" xlink:href="#U"/></g><path d="M140-251c81 0 123 46 123 126C263-46 219 4 140 4 59 4 17-45 17-125s42-126 123-126zm0 227c63 0 89-41 89-101s-29-99-89-99c-61 0-89 39-89 99S79-25 140-24" id="ak"/><path d="M85-194c31 0 48 13 60 33l-1-100h32l1 261h-30c-2-10 0-23-3-31C134-8 116 4 85 4 32 4 16-35 15-94c0-66 23-100 70-100zm9 24c-40 0-46 34-46 75 0 40 6 74 45 74 42 0 51-32 51-76 0-42-9-74-50-73" id="al"/><g id="h"><use transform="matrix(0.06172839506172839,0,0,0.06172839506172839,0,0)" xlink:href="#ak"/><use transform="matrix(0.06172839506172839,0,0,0.06172839506172839,17.28395061728395,0)" xlink:href="#Y"/><use transform="matrix(0.06172839506172839,0,0,0.06172839506172839,24.629629629629626,0)" xlink:href="#al"/><use transform="matrix(0.06172839506172839,0,0,0.06172839506172839,36.9753086419753,0)" xlink:href="#X"/><use transform="matrix(0.06172839506172839,0,0,0.06172839506172839,49.32098765432098,0)" xlink:href="#Y"/></g><g id="i"><use transform="matrix(0.06172839506172839,0,0,0.06172839506172839,0,0)" xlink:href="#ak"/><use transform="matrix(0.06172839506172839,0,0,0.06172839506172839,17.28395061728395,0)" xlink:href="#Y"/><use transform="matrix(0.06172839506172839,0,0,0.06172839506172839,24.629629629629626,0)" xlink:href="#al"/><use transform="matrix(0.06172839506172839,0,0,0.06172839506172839,36.9753086419753,0)" xlink:href="#X"/><use transform="matrix(0.06172839506172839,0,0,0.06172839506172839,49.32098765432098,0)" xlink:href="#Y"/><use transform="matrix(0.06172839506172839,0,0,0.06172839506172839,56.66666666666666,0)" xlink:href="#Z"/><use transform="matrix(0.06172839506172839,0,0,0.06172839506172839,69.01234567901234,0)" xlink:href="#aa"/><use transform="matrix(0.06172839506172839,0,0,0.06172839506172839,75.18518518518518,0)" xlink:href="#ab"/></g><g id="j"><use transform="matrix(0.06172839506172839,0,0,0.06172839506172839,0,0)" xlink:href="#ab"/><use transform="matrix(0.06172839506172839,0,0,0.06172839506172839,15.987654320987653,0)" xlink:href="#af"/><use transform="matrix(0.06172839506172839,0,0,0.06172839506172839,28.333333333333332,0)" xlink:href="#U"/><use transform="matrix(0.06172839506172839,0,0,0.06172839506172839,34.50617283950617,0)" xlink:href="#X"/></g><g id="k"><use transform="matrix(0.06172839506172839,0,0,0.06172839506172839,0,0)" xlink:href="#al"/><use transform="matrix(0.06172839506172839,0,0,0.06172839506172839,12.345679012345679,0)" xlink:href="#af"/><use transform="matrix(0.06172839506172839,0,0,0.06172839506172839,24.691358024691358,0)" xlink:href="#U"/><use transform="matrix(0.06172839506172839,0,0,0.06172839506172839,30.864197530864196,0)" xlink:href="#X"/></g><path d="M127-220V0H93v-220H8v-28h204v28h-85" id="am"/><g id="l"><use transform="matrix(0.06172839506172839,0,0,0.06172839506172839,0,0)" xlink:href="#am"/><use transform="matrix(0.06172839506172839,0,0,0.06172839506172839,11.049382716049381,0)" xlink:href="#V"/><use transform="matrix(0.06172839506172839,0,0,0.06172839506172839,23.39506172839506,0)" xlink:href="#U"/><use transform="matrix(0.06172839506172839,0,0,0.06172839506172839,29.5679012345679,0)" xlink:href="#af"/><use transform="matrix(0.06172839506172839,0,0,0.06172839506172839,41.913580246913575,0)" xlink:href="#ai"/></g><path d="M101-234c-31-9-42 10-38 44h38v23H63V0H32v-167H5v-23h27c-7-52 17-82 69-68v24" id="an"/><g id="m"><use transform="matrix(0.06172839506172839,0,0,0.06172839506172839,0,0)" xlink:href="#an"/><use transform="matrix(0.06172839506172839,0,0,0.06172839506172839,6.172839506172839,0)" xlink:href="#ai"/><use transform="matrix(0.06172839506172839,0,0,0.06172839506172839,11.049382716049383,0)" xlink:href="#V"/><use transform="matrix(0.06172839506172839,0,0,0.06172839506172839,23.395061728395063,0)" xlink:href="#af"/><use transform="matrix(0.06172839506172839,0,0,0.06172839506172839,35.74074074074074,0)" xlink:href="#U"/></g><path d="M30-248c87 1 191-15 191 75 0 78-77 80-158 76V0H30v-248zm33 125c57 0 124 11 124-50 0-59-68-47-124-48v98" id="ao"/><path d="M179-190L93 31C79 59 56 82 12 73V49c39 6 53-20 64-50L1-190h34L92-34l54-156h33" id="ap"/><g id="n"><use transform="matrix(0.06172839506172839,0,0,0.06172839506172839,0,0)" xlink:href="#ao"/><use transform="matrix(0.06172839506172839,0,0,0.06172839506172839,14.814814814814813,0)" xlink:href="#af"/><use transform="matrix(0.06172839506172839,0,0,0.06172839506172839,27.160493827160494,0)" xlink:href="#ap"/><use transform="matrix(0.06172839506172839,0,0,0.06172839506172839,38.27160493827161,0)" xlink:href="#W"/><use transform="matrix(0.06172839506172839,0,0,0.06172839506172839,56.72839506172839,0)" xlink:href="#X"/><use transform="matrix(0.06172839506172839,0,0,0.06172839506172839,69.07407407407408,0)" xlink:href="#ad"/><use transform="matrix(0.06172839506172839,0,0,0.06172839506172839,81.41975308641976,0)" xlink:href="#U"/><use transform="matrix(0.06172839506172839,0,0,0.06172839506172839,87.5925925925926,0)" xlink:href="#Z"/><use transform="matrix(0.06172839506172839,0,0,0.06172839506172839,99.93827160493828,0)" xlink:href="#aa"/><use transform="matrix(0.06172839506172839,0,0,0.06172839506172839,106.11111111111111,0)" xlink:href="#ab"/></g><path d="M240 0l2-218c-23 76-54 145-80 218h-23L58-218 59 0H30v-248h44l77 211c21-75 51-140 76-211h43V0h-30" id="aq"/><g id="o"><use transform="matrix(0.06172839506172839,0,0,0.06172839506172839,0,0)" xlink:href="#aq"/><use transform="matrix(0.06172839506172839,0,0,0.06172839506172839,18.456790123456788,0)" xlink:href="#X"/><use transform="matrix(0.06172839506172839,0,0,0.06172839506172839,30.80246913580247,0)" xlink:href="#ad"/><use transform="matrix(0.06172839506172839,0,0,0.06172839506172839,43.148148148148145,0)" xlink:href="#S"/><use transform="matrix(0.06172839506172839,0,0,0.06172839506172839,55.49382716049382,0)" xlink:href="#Z"/><use transform="matrix(0.06172839506172839,0,0,0.06172839506172839,67.8395061728395,0)" xlink:href="#aa"/><use transform="matrix(0.06172839506172839,0,0,0.06172839506172839,74.01234567901234,0)" xlink:href="#U"/><use transform="matrix(0.06172839506172839,0,0,0.06172839506172839,80.18518518518518,0)" xlink:href="#X"/><use transform="matrix(0.06172839506172839,0,0,0.06172839506172839,92.53086419753086,0)" xlink:href="#W"/></g><g id="p"><use transform="matrix(0.06172839506172839,0,0,0.06172839506172839,0,0)" xlink:href="#aa"/><use transform="matrix(0.06172839506172839,0,0,0.06172839506172839,6.172839506172839,0)" xlink:href="#U"/><use transform="matrix(0.06172839506172839,0,0,0.06172839506172839,12.345679012345679,0)" xlink:href="#X"/><use transform="matrix(0.06172839506172839,0,0,0.06172839506172839,24.691358024691358,0)" xlink:href="#W"/><use transform="matrix(0.06172839506172839,0,0,0.06172839506172839,43.148148148148145,0)" xlink:href="#Z"/><use transform="matrix(0.06172839506172839,0,0,0.06172839506172839,55.49382716049382,0)" xlink:href="#aa"/><use transform="matrix(0.06172839506172839,0,0,0.06172839506172839,61.666666666666664,0)" xlink:href="#ab"/></g><g id="q"><use transform="matrix(0.06172839506172839,0,0,0.06172839506172839,0,0)" xlink:href="#ao"/><use transform="matrix(0.06172839506172839,0,0,0.06172839506172839,14.814814814814813,0)" xlink:href="#Y"/><use transform="matrix(0.06172839506172839,0,0,0.06172839506172839,22.160493827160494,0)" xlink:href="#ac"/><use transform="matrix(0.06172839506172839,0,0,0.06172839506172839,27.037037037037038,0)" xlink:href="#aj"/><use transform="matrix(0.06172839506172839,0,0,0.06172839506172839,38.14814814814815,0)" xlink:href="#X"/></g><g id="r"><use transform="matrix(0.06172839506172839,0,0,0.06172839506172839,0,0)" xlink:href="#R"/><use transform="matrix(0.06172839506172839,0,0,0.06172839506172839,15.987654320987653,0)" xlink:href="#af"/><use transform="matrix(0.06172839506172839,0,0,0.06172839506172839,28.333333333333332,0)" xlink:href="#U"/><use transform="matrix(0.06172839506172839,0,0,0.06172839506172839,34.50617283950617,0)" xlink:href="#X"/><use transform="matrix(0.06172839506172839,0,0,0.06172839506172839,46.85185185185185,0)" xlink:href="#ag"/><use transform="matrix(0.06172839506172839,0,0,0.06172839506172839,59.197530864197525,0)" xlink:href="#V"/><use transform="matrix(0.06172839506172839,0,0,0.06172839506172839,71.5432098765432,0)" xlink:href="#Y"/><use transform="matrix(0.06172839506172839,0,0,0.06172839506172839,78.88888888888889,0)" xlink:href="#ap"/></g><path d="M115-194c53 0 69 39 70 98 0 66-23 100-70 100C84 3 66-7 56-30L54 0H23l1-261h32v101c10-23 28-34 59-34zm-8 174c40 0 45-34 45-75 0-40-5-75-45-74-42 0-51 32-51 76 0 43 10 73 51 73" id="ar"/><g id="s"><use transform="matrix(0.06172839506172839,0,0,0.06172839506172839,0,0)" xlink:href="#am"/><use transform="matrix(0.06172839506172839,0,0,0.06172839506172839,11.049382716049381,0)" xlink:href="#af"/><use transform="matrix(0.06172839506172839,0,0,0.06172839506172839,23.39506172839506,0)" xlink:href="#ar"/><use transform="matrix(0.06172839506172839,0,0,0.06172839506172839,35.74074074074074,0)" xlink:href="#ai"/><use transform="matrix(0.06172839506172839,0,0,0.06172839506172839,40.617283950617285,0)" xlink:href="#X"/></g><g id="t"><use transform="matrix(0.06172839506172839,0,0,0.06172839506172839,0,0)" xlink:href="#am"/><use transform="matrix(0.06172839506172839,0,0,0.06172839506172839,11.049382716049381,0)" xlink:href="#af"/><use transform="matrix(0.06172839506172839,0,0,0.06172839506172839,23.39506172839506,0)" xlink:href="#ar"/><use transform="matrix(0.06172839506172839,0,0,0.06172839506172839,35.74074074074074,0)" xlink:href="#ai"/><use transform="matrix(0.06172839506172839,0,0,0.06172839506172839,40.617283950617285,0)" xlink:href="#X"/><use transform="matrix(0.06172839506172839,0,0,0.06172839506172839,52.96296296296296,0)" xlink:href="#Z"/><use transform="matrix(0.06172839506172839,0,0,0.06172839506172839,65.30864197530865,0)" xlink:href="#aa"/><use transform="matrix(0.06172839506172839,0,0,0.06172839506172839,71.48148148148148,0)" xlink:href="#ab"/></g><path d="M30 0v-248h33v221h125V0H30" id="as"/><g id="u"><use transform="matrix(0.06172839506172839,0,0,0.06172839506172839,0,0)" xlink:href="#as"/><use transform="matrix(0.06172839506172839,0,0,0.06172839506172839,12.345679012345679,0)" xlink:href="#V"/><use transform="matrix(0.06172839506172839,0,0,0.06172839506172839,24.691358024691358,0)" xlink:href="#aj"/><use transform="matrix(0.06172839506172839,0,0,0.06172839506172839,35.80246913580247,0)" xlink:href="#af"/><use transform="matrix(0.06172839506172839,0,0,0.06172839506172839,48.148148148148145,0)" xlink:href="#U"/><use transform="matrix(0.06172839506172839,0,0,0.06172839506172839,54.32098765432099,0)" xlink:href="#ac"/><use transform="matrix(0.06172839506172839,0,0,0.06172839506172839,59.19753086419753,0)" xlink:href="#V"/><use transform="matrix(0.06172839506172839,0,0,0.06172839506172839,71.54320987654322,0)" xlink:href="#ad"/></g><path d="M115-194c55 1 70 41 70 98S169 2 115 4C84 4 66-9 55-30l1 105H24l-1-265h31l2 30c10-21 28-34 59-34zm-8 174c40 0 45-34 45-75s-6-73-45-74c-42 0-51 32-51 76 0 43 10 73 51 73" id="at"/><g id="v"><use transform="matrix(0.06172839506172839,0,0,0.06172839506172839,0,0)" xlink:href="#R"/><use transform="matrix(0.06172839506172839,0,0,0.06172839506172839,15.987654320987653,0)" xlink:href="#af"/><use transform="matrix(0.06172839506172839,0,0,0.06172839506172839,28.333333333333332,0)" xlink:href="#at"/><use transform="matrix(0.06172839506172839,0,0,0.06172839506172839,40.67901234567901,0)" xlink:href="#af"/><use transform="matrix(0.06172839506172839,0,0,0.06172839506172839,53.02469135802469,0)" xlink:href="#aj"/><use transform="matrix(0.06172839506172839,0,0,0.06172839506172839,64.1358024691358,0)" xlink:href="#ac"/><use transform="matrix(0.06172839506172839,0,0,0.06172839506172839,69.01234567901234,0)" xlink:href="#U"/><use transform="matrix(0.06172839506172839,0,0,0.06172839506172839,75.18518518518518,0)" xlink:href="#ap"/></g><path d="M160-131c35 5 61 23 61 61C221 17 115-2 30 0v-248c76 3 177-17 177 60 0 33-19 50-47 57zm-97-11c50-1 110 9 110-42 0-47-63-36-110-37v79zm0 115c55-2 124 14 124-45 0-56-70-42-124-44v89" id="au"/><path d="M143 0L79-87 56-68V0H24v-261h32v163l83-92h37l-77 82L181 0h-38" id="av"/><g id="w"><use transform="matrix(0.06172839506172839,0,0,0.06172839506172839,0,0)" xlink:href="#au"/><use transform="matrix(0.06172839506172839,0,0,0.06172839506172839,14.814814814814813,0)" xlink:href="#V"/><use transform="matrix(0.06172839506172839,0,0,0.06172839506172839,27.160493827160494,0)" xlink:href="#V"/><use transform="matrix(0.06172839506172839,0,0,0.06172839506172839,39.50617283950617,0)" xlink:href="#av"/><use transform="matrix(0.06172839506172839,0,0,0.06172839506172839,50.61728395061728,0)" xlink:href="#ac"/><use transform="matrix(0.06172839506172839,0,0,0.06172839506172839,55.49382716049382,0)" xlink:href="#ad"/><use transform="matrix(0.06172839506172839,0,0,0.06172839506172839,67.8395061728395,0)" xlink:href="#ag"/><use transform="matrix(0.06172839506172839,0,0,0.06172839506172839,80.18518518518519,0)" xlink:href="#Z"/><use transform="matrix(0.06172839506172839,0,0,0.06172839506172839,92.53086419753087,0)" xlink:href="#aa"/><use transform="matrix(0.06172839506172839,0,0,0.06172839506172839,98.70370370370371,0)" xlink:href="#ab"/></g><g id="x"><use transform="matrix(0.06172839506172839,0,0,0.06172839506172839,0,0)" xlink:href="#ao"/><use transform="matrix(0.06172839506172839,0,0,0.06172839506172839,14.814814814814813,0)" xlink:href="#af"/><use transform="matrix(0.06172839506172839,0,0,0.06172839506172839,27.160493827160494,0)" xlink:href="#ap"/><use transform="matrix(0.06172839506172839,0,0,0.06172839506172839,38.27160493827161,0)" xlink:href="#W"/><use transform="matrix(0.06172839506172839,0,0,0.06172839506172839,56.72839506172839,0)" xlink:href="#X"/><use transform="matrix(0.06172839506172839,0,0,0.06172839506172839,69.07407407407408,0)" xlink:href="#ad"/><use transform="matrix(0.06172839506172839,0,0,0.06172839506172839,81.41975308641976,0)" xlink:href="#U"/></g><g id="y"><use transform="matrix(0.06172839506172839,0,0,0.06172839506172839,0,0)" xlink:href="#am"/><use transform="matrix(0.06172839506172839,0,0,0.06172839506172839,12.28395061728395,0)" xlink:href="#ap"/><use transform="matrix(0.06172839506172839,0,0,0.06172839506172839,23.39506172839506,0)" xlink:href="#at"/><use transform="matrix(0.06172839506172839,0,0,0.06172839506172839,35.74074074074074,0)" xlink:href="#X"/></g><path d="M185-189c-5-48-123-54-124 2 14 75 158 14 163 119 3 78-121 87-175 55-17-10-28-26-33-46l33-7c5 56 141 63 141-1 0-78-155-14-162-118-5-82 145-84 179-34 5 7 8 16 11 25" id="aw"/><g id="z"><use transform="matrix(0.06172839506172839,0,0,0.06172839506172839,0,0)" xlink:href="#aw"/><use transform="matrix(0.06172839506172839,0,0,0.06172839506172839,14.814814814814813,0)" xlink:href="#U"/><use transform="matrix(0.06172839506172839,0,0,0.06172839506172839,20.98765432098765,0)" xlink:href="#af"/><use transform="matrix(0.06172839506172839,0,0,0.06172839506172839,33.33333333333333,0)" xlink:href="#U"/><use transform="matrix(0.06172839506172839,0,0,0.06172839506172839,39.50617283950617,0)" xlink:href="#S"/><use transform="matrix(0.06172839506172839,0,0,0.06172839506172839,51.85185185185185,0)" xlink:href="#T"/></g><g id="A"><use transform="matrix(0.06172839506172839,0,0,0.06172839506172839,0,0)" xlink:href="#aw"/><use transform="matrix(0.06172839506172839,0,0,0.06172839506172839,14.814814814814813,0)" xlink:href="#S"/><use transform="matrix(0.06172839506172839,0,0,0.06172839506172839,27.160493827160494,0)" xlink:href="#at"/><use transform="matrix(0.06172839506172839,0,0,0.06172839506172839,39.50617283950617,0)" xlink:href="#at"/><use transform="matrix(0.06172839506172839,0,0,0.06172839506172839,51.85185185185185,0)" xlink:href="#ai"/><use transform="matrix(0.06172839506172839,0,0,0.06172839506172839,56.72839506172839,0)" xlink:href="#ac"/><use transform="matrix(0.06172839506172839,0,0,0.06172839506172839,61.60493827160494,0)" xlink:href="#X"/><use transform="matrix(0.06172839506172839,0,0,0.06172839506172839,73.95061728395062,0)" xlink:href="#Y"/></g><g id="B"><use transform="matrix(0.06172839506172839,0,0,0.06172839506172839,0,0)" xlink:href="#aw"/><use transform="matrix(0.06172839506172839,0,0,0.06172839506172839,14.814814814814813,0)" xlink:href="#S"/><use transform="matrix(0.06172839506172839,0,0,0.06172839506172839,27.160493827160494,0)" xlink:href="#at"/><use transform="matrix(0.06172839506172839,0,0,0.06172839506172839,39.50617283950617,0)" xlink:href="#at"/><use transform="matrix(0.06172839506172839,0,0,0.06172839506172839,51.85185185185185,0)" xlink:href="#ai"/><use transform="matrix(0.06172839506172839,0,0,0.06172839506172839,56.72839506172839,0)" xlink:href="#ac"/><use transform="matrix(0.06172839506172839,0,0,0.06172839506172839,61.60493827160494,0)" xlink:href="#X"/><use transform="matrix(0.06172839506172839,0,0,0.06172839506172839,73.95061728395062,0)" xlink:href="#Y"/><use transform="matrix(0.06172839506172839,0,0,0.06172839506172839,81.2962962962963,0)" xlink:href="#Z"/><use transform="matrix(0.06172839506172839,0,0,0.06172839506172839,93.64197530864199,0)" xlink:href="#aa"/><use transform="matrix(0.06172839506172839,0,0,0.06172839506172839,99.81481481481482,0)" xlink:href="#ab"/></g><g id="C"><use transform="matrix(0.06172839506172839,0,0,0.06172839506172839,0,0)" xlink:href="#ao"/><use transform="matrix(0.06172839506172839,0,0,0.06172839506172839,14.814814814814813,0)" xlink:href="#Y"/><use transform="matrix(0.06172839506172839,0,0,0.06172839506172839,22.160493827160494,0)" xlink:href="#V"/><use transform="matrix(0.06172839506172839,0,0,0.06172839506172839,34.50617283950617,0)" xlink:href="#al"/><use transform="matrix(0.06172839506172839,0,0,0.06172839506172839,46.85185185185185,0)" xlink:href="#S"/><use transform="matrix(0.06172839506172839,0,0,0.06172839506172839,59.197530864197525,0)" xlink:href="#aj"/><use transform="matrix(0.06172839506172839,0,0,0.06172839506172839,70.30864197530863,0)" xlink:href="#U"/></g><path d="M106-169C34-169 62-67 57 0H25v-261h32l-1 103c12-21 28-36 61-36 89 0 53 116 60 194h-32v-121c2-32-8-49-39-48" id="ax"/><g id="D"><use transform="matrix(0.06172839506172839,0,0,0.06172839506172839,0,0)" xlink:href="#R"/><use transform="matrix(0.06172839506172839,0,0,0.06172839506172839,15.987654320987653,0)" xlink:href="#ax"/><use transform="matrix(0.06172839506172839,0,0,0.06172839506172839,28.333333333333332,0)" xlink:href="#X"/><use transform="matrix(0.06172839506172839,0,0,0.06172839506172839,40.67901234567901,0)" xlink:href="#an"/></g><g id="E"><use transform="matrix(0.06172839506172839,0,0,0.06172839506172839,0,0)" xlink:href="#R"/><use transform="matrix(0.06172839506172839,0,0,0.06172839506172839,15.987654320987653,0)" xlink:href="#ax"/><use transform="matrix(0.06172839506172839,0,0,0.06172839506172839,28.333333333333332,0)" xlink:href="#X"/><use transform="matrix(0.06172839506172839,0,0,0.06172839506172839,40.67901234567901,0)" xlink:href="#an"/><use transform="matrix(0.06172839506172839,0,0,0.06172839506172839,46.851851851851855,0)" xlink:href="#Z"/><use transform="matrix(0.06172839506172839,0,0,0.06172839506172839,59.19753086419753,0)" xlink:href="#aa"/><use transform="matrix(0.06172839506172839,0,0,0.06172839506172839,65.37037037037037,0)" xlink:href="#ab"/></g><g id="F"><use transform="matrix(0.06172839506172839,0,0,0.06172839506172839,0,0)" xlink:href="#aw"/><use transform="matrix(0.06172839506172839,0,0,0.06172839506172839,14.814814814814813,0)" xlink:href="#at"/><use transform="matrix(0.06172839506172839,0,0,0.06172839506172839,27.160493827160494,0)" xlink:href="#X"/><use transform="matrix(0.06172839506172839,0,0,0.06172839506172839,39.50617283950617,0)" xlink:href="#aj"/><use transform="matrix(0.06172839506172839,0,0,0.06172839506172839,50.61728395061728,0)" xlink:href="#ac"/><use transform="matrix(0.06172839506172839,0,0,0.06172839506172839,55.49382716049382,0)" xlink:href="#af"/><use transform="matrix(0.06172839506172839,0,0,0.06172839506172839,67.8395061728395,0)" xlink:href="#ai"/><use transform="matrix(0.06172839506172839,0,0,0.06172839506172839,72.71604938271605,0)" xlink:href="#U"/><use transform="matrix(0.06172839506172839,0,0,0.06172839506172839,78.88888888888889,0)" xlink:href="#ap"/></g><path fill="#3a414a" d="M142-158h-39l-4-90h48zm-75 0H28l-4-90h48" id="ay"/><path fill="#3a414a" d="M135-194c53 0 70 44 70 98 0 56-19 98-73 100-31 1-45-17-59-34 3 33 2 69 2 105H25l-1-265h48c2 10 0 23 3 31 11-24 29-35 60-35zM114-30c33 0 39-31 40-66 0-38-9-64-40-64-56 0-55 130 0 130" id="az"/><path fill="#3a414a" d="M25 0v-261h50V0H25" id="aA"/><path fill="#3a414a" d="M133-34C117-15 103 5 69 4 32 3 11-16 11-54c-1-60 55-63 116-61 1-26-3-47-28-47-18 1-26 9-28 27l-52-2c7-38 36-58 82-57s74 22 75 68l1 82c-1 14 12 18 25 15v27c-30 8-71 5-69-32zm-48 3c29 0 43-24 42-57-32 0-66-3-65 30 0 17 8 27 23 27" id="aB"/><path fill="#3a414a" d="M190-63c-7 42-38 67-86 67-59 0-84-38-90-98-12-110 154-137 174-36l-49 2c-2-19-15-32-35-32-30 0-35 28-38 64-6 74 65 87 74 30" id="aC"/><path fill="#3a414a" d="M185-48c-13 30-37 53-82 52C43 2 14-33 14-96s30-98 90-98c62 0 83 45 84 108H66c0 31 8 55 39 56 18 0 30-7 34-22zm-45-69c5-46-57-63-70-21-2 6-4 13-4 21h74" id="aD"/><path fill="#3a414a" d="M137-138c1-29-70-34-71-4 15 46 118 7 119 86 1 83-164 76-172 9l43-7c4 19 20 25 44 25 33 8 57-30 24-41C81-84 22-81 20-136c-2-80 154-74 161-7" id="aE"/><g id="G"><use transform="matrix(0.04938271604938272,0,0,0.04938271604938272,0,0)" xlink:href="#ay"/><use transform="matrix(0.04938271604938272,0,0,0.04938271604938272,8.395061728395062,0)" xlink:href="#az"/><use transform="matrix(0.04938271604938272,0,0,0.04938271604938272,19.209876543209877,0)" xlink:href="#aA"/><use transform="matrix(0.04938271604938272,0,0,0.04938271604938272,24.14814814814815,0)" xlink:href="#aB"/><use transform="matrix(0.04938271604938272,0,0,0.04938271604938272,34.0246913580247,0)" xlink:href="#aC"/><use transform="matrix(0.04938271604938272,0,0,0.04938271604938272,43.90123456790124,0)" xlink:href="#aD"/><use transform="matrix(0.04938271604938272,0,0,0.04938271604938272,53.777777777777786,0)" xlink:href="#aE"/><use transform="matrix(0.04938271604938272,0,0,0.04938271604938272,63.65432098765432,0)" xlink:href="#ay"/></g><path fill="#3a414a" d="M25-224v-37h50v37H25zM25 0v-190h50V0H25" id="aF"/><path fill="#3a414a" d="M135-194c87-1 58 113 63 194h-50c-7-57 23-157-34-157-59 0-34 97-39 157H25l-1-190h47c2 12-1 28 3 38 12-26 28-41 61-42" id="aG"/><path fill="#3a414a" d="M85 4C-2 5 27-109 22-190h50c7 57-23 150 33 157 60-5 35-97 40-157h50l1 190h-47c-2-12 1-28-3-38-12 25-28 42-61 42" id="aH"/><path fill="#3a414a" d="M88-194c31-1 46 15 58 34l-1-101h50l1 261h-48c-2-10 0-23-3-31C134-8 116 4 84 4 32 4 16-41 15-95c0-56 19-97 73-99zm17 164c33 0 40-30 41-66 1-37-9-64-41-64s-38 30-39 65c0 43 13 65 39 65" id="aI"/><g id="H"><use transform="matrix(0.04938271604938272,0,0,0.04938271604938272,0,0)" xlink:href="#ay"/><use transform="matrix(0.04938271604938272,0,0,0.04938271604938272,8.395061728395062,0)" xlink:href="#aF"/><use transform="matrix(0.04938271604938272,0,0,0.04938271604938272,13.333333333333334,0)" xlink:href="#aG"/><use transform="matrix(0.04938271604938272,0,0,0.04938271604938272,24.14814814814815,0)" xlink:href="#aC"/><use transform="matrix(0.04938271604938272,0,0,0.04938271604938272,34.0246913580247,0)" xlink:href="#aA"/><use transform="matrix(0.04938271604938272,0,0,0.04938271604938272,38.96296296296297,0)" xlink:href="#aH"/><use transform="matrix(0.04938271604938272,0,0,0.04938271604938272,49.777777777777786,0)" xlink:href="#aI"/><use transform="matrix(0.04938271604938272,0,0,0.04938271604938272,60.592592592592595,0)" xlink:href="#aD"/><use transform="matrix(0.04938271604938272,0,0,0.04938271604938272,70.46913580246914,0)" xlink:href="#aE"/><use transform="matrix(0.04938271604938272,0,0,0.04938271604938272,80.34567901234568,0)" xlink:href="#ay"/></g><path fill="#3a414a" d="M135-150c-39-12-60 13-60 57V0H25l-1-190h47c2 13-1 29 3 40 6-28 27-53 61-41v41" id="aJ"/><path fill="#3a414a" d="M128 0H69L1-190h53L99-40l48-150h52" id="aK"/><g id="I"><use transform="matrix(0.04938271604938272,0,0,0.04938271604938272,0,0)" xlink:href="#ay"/><use transform="matrix(0.04938271604938272,0,0,0.04938271604938272,8.395061728395062,0)" xlink:href="#aJ"/><use transform="matrix(0.04938271604938272,0,0,0.04938271604938272,15.308641975308642,0)" xlink:href="#aD"/><use transform="matrix(0.04938271604938272,0,0,0.04938271604938272,25.185185185185187,0)" xlink:href="#aE"/><use transform="matrix(0.04938271604938272,0,0,0.04938271604938272,35.061728395061735,0)" xlink:href="#aD"/><use transform="matrix(0.04938271604938272,0,0,0.04938271604938272,44.93827160493828,0)" xlink:href="#aJ"/><use transform="matrix(0.04938271604938272,0,0,0.04938271604938272,51.851851851851855,0)" xlink:href="#aK"/><use transform="matrix(0.04938271604938272,0,0,0.04938271604938272,61.72839506172841,0)" xlink:href="#aD"/><use transform="matrix(0.04938271604938272,0,0,0.04938271604938272,71.60493827160495,0)" xlink:href="#aI"/></g><path fill="#3a414a" d="M115-3C79 11 28 4 28-45v-112H4v-33h27l15-45h31v45h36v33H77v99c-1 23 16 31 38 25v30" id="aL"/><path fill="#3a414a" d="M114-157C55-157 80-60 75 0H25v-261h50l-1 109c12-26 28-41 61-42 86-1 58 113 63 194h-50c-7-57 23-157-34-157" id="aM"/><path fill="#3a414a" d="M110-194c64 0 96 36 96 99 0 64-35 99-97 99-61 0-95-36-95-99 0-62 34-99 96-99zm-1 164c35 0 45-28 45-65 0-40-10-65-43-65-34 0-45 26-45 65 0 36 10 65 43 65" id="aN"/><path fill="#3a414a" d="M195-6C206 82 75 100 31 46c-4-6-6-13-8-21l49-6c3 16 16 24 34 25 40 0 42-37 40-79-11 22-30 35-61 35-53 0-70-43-70-97 0-56 18-96 73-97 30 0 46 14 59 34l2-30h47zm-90-29c32 0 41-27 41-63 0-35-9-62-40-62-32 0-39 29-40 63 0 36 9 62 39 62" id="aO"/><g id="J"><use transform="matrix(0.04938271604938272,0,0,0.04938271604938272,0,0)" xlink:href="#aL"/><use transform="matrix(0.04938271604938272,0,0,0.04938271604938272,5.8765432098765435,0)" xlink:href="#aM"/><use transform="matrix(0.04938271604938272,0,0,0.04938271604938272,16.691358024691358,0)" xlink:href="#aJ"/><use transform="matrix(0.04938271604938272,0,0,0.04938271604938272,23.604938271604937,0)" xlink:href="#aN"/><use transform="matrix(0.04938271604938272,0,0,0.04938271604938272,34.41975308641975,0)" xlink:href="#aH"/><use transform="matrix(0.04938271604938272,0,0,0.04938271604938272,45.23456790123457,0)" xlink:href="#aO"/><use transform="matrix(0.04938271604938272,0,0,0.04938271604938272,56.04938271604939,0)" xlink:href="#aM"/><use transform="matrix(0.04938271604938272,0,0,0.04938271604938272,66.8641975308642,0)" xlink:href="#ay"/></g><g id="K"><use transform="matrix(0.04938271604938272,0,0,0.04938271604938272,0,0)" xlink:href="#ay"/><use transform="matrix(0.04938271604938272,0,0,0.04938271604938272,8.395061728395062,0)" xlink:href="#az"/><use transform="matrix(0.04938271604938272,0,0,0.04938271604938272,19.209876543209877,0)" xlink:href="#aJ"/><use transform="matrix(0.04938271604938272,0,0,0.04938271604938272,26.123456790123452,0)" xlink:href="#aD"/><use transform="matrix(0.04938271604938272,0,0,0.04938271604938272,36,0)" xlink:href="#az"/><use transform="matrix(0.04938271604938272,0,0,0.04938271604938272,46.81481481481482,0)" xlink:href="#aB"/><use transform="matrix(0.04938271604938272,0,0,0.04938271604938272,56.69135802469136,0)" xlink:href="#aJ"/><use transform="matrix(0.04938271604938272,0,0,0.04938271604938272,63.604938271604944,0)" xlink:href="#aD"/><use transform="matrix(0.04938271604938272,0,0,0.04938271604938272,73.4814814814815,0)" xlink:href="#aE"/><use transform="matrix(0.04938271604938272,0,0,0.04938271604938272,83.35802469135804,0)" xlink:href="#ay"/></g><path fill="#3a414a" d="M147 0L96-86 75-71V0H25v-261h50v150l67-79h53l-66 74L201 0h-54" id="aP"/><g id="L"><use transform="matrix(0.04938271604938272,0,0,0.04938271604938272,0,0)" xlink:href="#ay"/><use transform="matrix(0.04938271604938272,0,0,0.04938271604938272,8.395061728395062,0)" xlink:href="#aA"/><use transform="matrix(0.04938271604938272,0,0,0.04938271604938272,13.333333333333334,0)" xlink:href="#aF"/><use transform="matrix(0.04938271604938272,0,0,0.04938271604938272,18.271604938271608,0)" xlink:href="#aG"/><use transform="matrix(0.04938271604938272,0,0,0.04938271604938272,29.08641975308642,0)" xlink:href="#aP"/><use transform="matrix(0.04938271604938272,0,0,0.04938271604938272,38.96296296296297,0)" xlink:href="#aD"/><use transform="matrix(0.04938271604938272,0,0,0.04938271604938272,48.83950617283951,0)" xlink:href="#aI"/></g><g id="M"><use transform="matrix(0.04938271604938272,0,0,0.04938271604938272,0,0)" xlink:href="#aL"/><use transform="matrix(0.04938271604938272,0,0,0.04938271604938272,5.8765432098765435,0)" xlink:href="#aN"/><use transform="matrix(0.04938271604938272,0,0,0.04938271604938272,16.691358024691358,0)" xlink:href="#ay"/></g><g id="N"><use transform="matrix(0.06172839506172839,0,0,0.06172839506172839,0,0)" xlink:href="#ad"/><use transform="matrix(0.06172839506172839,0,0,0.06172839506172839,12.345679012345679,0)" xlink:href="#S"/><use transform="matrix(0.06172839506172839,0,0,0.06172839506172839,24.691358024691358,0)" xlink:href="#W"/><use transform="matrix(0.06172839506172839,0,0,0.06172839506172839,43.148148148148145,0)" xlink:href="#ar"/><use transform="matrix(0.06172839506172839,0,0,0.06172839506172839,55.49382716049382,0)" xlink:href="#X"/><use transform="matrix(0.06172839506172839,0,0,0.06172839506172839,67.8395061728395,0)" xlink:href="#Y"/></g><g id="O"><use transform="matrix(0.06172839506172839,0,0,0.06172839506172839,0,0)" xlink:href="#au"/><use transform="matrix(0.06172839506172839,0,0,0.06172839506172839,14.814814814814813,0)" xlink:href="#V"/><use transform="matrix(0.06172839506172839,0,0,0.06172839506172839,27.160493827160494,0)" xlink:href="#V"/><use transform="matrix(0.06172839506172839,0,0,0.06172839506172839,39.50617283950617,0)" xlink:href="#av"/><use transform="matrix(0.06172839506172839,0,0,0.06172839506172839,50.61728395061728,0)" xlink:href="#ac"/><use transform="matrix(0.06172839506172839,0,0,0.06172839506172839,55.49382716049382,0)" xlink:href="#ad"/><use transform="matrix(0.06172839506172839,0,0,0.06172839506172839,67.8395061728395,0)" xlink:href="#ag"/></g><g id="P"><use transform="matrix(0.06172839506172839,0,0,0.06172839506172839,0,0)" xlink:href="#au"/><use transform="matrix(0.06172839506172839,0,0,0.06172839506172839,14.814814814814813,0)" xlink:href="#V"/><use transform="matrix(0.06172839506172839,0,0,0.06172839506172839,27.160493827160494,0)" xlink:href="#V"/><use transform="matrix(0.06172839506172839,0,0,0.06172839506172839,39.50617283950617,0)" xlink:href="#av"/><use transform="matrix(0.06172839506172839,0,0,0.06172839506172839,50.61728395061728,0)" xlink:href="#ac"/><use transform="matrix(0.06172839506172839,0,0,0.06172839506172839,55.49382716049382,0)" xlink:href="#ad"/><use transform="matrix(0.06172839506172839,0,0,0.06172839506172839,67.8395061728395,0)" xlink:href="#ag"/><use transform="matrix(0.06172839506172839,0,0,0.06172839506172839,80.18518518518519,0)" xlink:href="#ab"/><use transform="matrix(0.06172839506172839,0,0,0.06172839506172839,96.17283950617285,0)" xlink:href="#af"/><use transform="matrix(0.06172839506172839,0,0,0.06172839506172839,108.51851851851853,0)" xlink:href="#U"/><use transform="matrix(0.06172839506172839,0,0,0.06172839506172839,114.69135802469137,0)" xlink:href="#X"/></g><g id="Q"><use transform="matrix(0.06172839506172839,0,0,0.06172839506172839,0,0)" xlink:href="#al"/><use transform="matrix(0.06172839506172839,0,0,0.06172839506172839,12.345679012345679,0)" xlink:href="#af"/><use transform="matrix(0.06172839506172839,0,0,0.06172839506172839,24.691358024691358,0)" xlink:href="#U"/><use transform="matrix(0.06172839506172839,0,0,0.06172839506172839,30.864197530864196,0)" xlink:href="#X"/><use transform="matrix(0.06172839506172839,0,0,0.06172839506172839,43.20987654320987,0)" xlink:href="#U"/><use transform="matrix(0.06172839506172839,0,0,0.06172839506172839,49.382716049382715,0)" xlink:href="#ac"/><use transform="matrix(0.06172839506172839,0,0,0.06172839506172839,54.25925925925926,0)" xlink:href="#W"/><use transform="matrix(0.06172839506172839,0,0,0.06172839506172839,72.71604938271605,0)" xlink:href="#X"/></g></defs></g></svg>